<?xml version="1.0" encoding="utf-8"?>
<!-- Generator: Adobe Illustrator 24.1.2, SVG Export Plug-In . SVG Version: 6.00 Build 0)  -->
<svg version="1.1" id="Laag_1" xmlns="http://www.w3.org/2000/svg" xmlns:xlink="http://www.w3.org/1999/xlink" x="0px" y="0px"
	 viewBox="0 0 841.89 595.28" style="enable-background:new 0 0 841.89 595.28;" xml:space="preserve">
<style type="text/css">
	.st0{fill:#3B8974;}
	.st1{fill:#66BEA9;}
</style>
<g>
	<g>
		<path class="st0" d="M535.06,359l-2.69-3.08c-0.51-0.58-1.4-0.64-1.98-0.13l-15.92,13.89c-0.58,0.51-0.64,1.4-0.13,1.98l2.69,3.08
			c0.51,0.58,1.4,0.64,1.98,0.13l15.92-13.89C535.51,360.47,535.57,359.59,535.06,359z"/>
		<g>
			
				<ellipse transform="matrix(0.7087 -0.7055 0.7055 0.7087 -114.6076 472.3149)" class="st0" cx="514.69" cy="374.95" rx="3.74" ry="9.82"/>
			
				<ellipse transform="matrix(0.7087 -0.7055 0.7055 0.7087 -114.4727 472.3714)" class="st0" cx="514.82" cy="374.82" rx="2.06" ry="5.87"/>
		</g>
	</g>
	<g>
		<path class="st0" d="M661.7,316.83v-4.09c0-0.78-0.63-1.4-1.4-1.4h-27.06c-0.78,0-1.4,0.63-1.4,1.4v4.09c0,0.78,0.63,1.4,1.4,1.4
			h27.06C661.07,318.24,661.7,317.61,661.7,316.83z"/>
		<g>
			
				<ellipse transform="matrix(6.713116e-03 -1 1 6.713116e-03 345.2 976.1972)" class="st0" cx="663.99" cy="314.34" rx="9.82" ry="3.74"/>
			
				<ellipse transform="matrix(6.713116e-03 -1 1 6.713116e-03 345.3892 976.3902)" class="st0" cx="664.18" cy="314.34" rx="5.87" ry="2.06"/>
		</g>
	</g>
	<g>
		<path class="st0" d="M576.96,237.89h-4.09c-0.78,0-1.4,0.63-1.4,1.4v18.38c0,0.78,0.63,1.4,1.4,1.4h4.09c0.78,0,1.4-0.63,1.4-1.4
			V239.3C578.36,238.52,577.73,237.89,576.96,237.89z"/>
		<ellipse class="st0" cx="574.91" cy="238.09" rx="9.82" ry="3.74"/>
		<ellipse class="st0" cx="574.91" cy="237.51" rx="5.47" ry="2.09"/>
	</g>
	<circle class="st1" cx="574.91" cy="318.64" r="61.09"/>
	<circle class="st1" cx="565.91" cy="287.43" r="6.89"/>
	<ellipse class="st0" cx="574.31" cy="311.34" rx="11.15" ry="10.69"/>
	
		<ellipse transform="matrix(0.9867 -0.1627 0.1627 0.9867 -51.9314 100.429)" class="st0" cx="587.21" cy="367.28" rx="9.26" ry="5.48"/>
	
		<ellipse transform="matrix(0.5456 -0.838 0.838 0.5456 -8.4629 673.6471)" class="st0" cx="616.98" cy="344.63" rx="9.48" ry="5.87"/>
	<ellipse transform="matrix(0.5 -0.866 0.866 0.5 -37.6687 654.7647)" class="st0" cx="548.21" cy="360" rx="6" ry="8.83"/>
	<ellipse class="st0" cx="577.61" cy="346.09" rx="9.59" ry="8.11"/>
	<circle class="st0" cx="599.07" cy="321.35" r="10.01"/>
	
		<ellipse transform="matrix(0.8472 -0.5312 0.5312 0.8472 -89.1664 343.0692)" class="st0" cx="551.89" cy="326.56" rx="8.26" ry="9.64"/>
	
		<ellipse transform="matrix(0.9775 -0.2108 0.2108 0.9775 -44.0957 124.9839)" class="st0" cx="564.12" cy="269.3" rx="8.83" ry="6"/>
	<ellipse transform="matrix(0.3749 -0.927 0.927 0.3749 59.171 674.2885)" class="st0" cx="529.62" cy="293.26" rx="8.83" ry="6"/>
	
		<ellipse transform="matrix(0.9867 -0.1627 0.1627 0.9867 -46.8058 90.0271)" class="st0" cx="526.26" cy="330.79" rx="6" ry="8.83"/>
	<ellipse transform="matrix(0.5 -0.866 0.866 0.5 61.2594 660.646)" class="st0" cx="602.77" cy="277.27" rx="5.87" ry="9.48"/>
	
		<ellipse transform="matrix(0.9937 -0.1122 0.1122 0.9937 -30.5035 72.0489)" class="st0" cx="625.06" cy="307.12" rx="5.87" ry="9.48"/>
	
		<ellipse transform="matrix(0.7071 -0.7071 0.7071 0.7071 -45.493 478.8086)" class="st0" cx="555.23" cy="294.32" rx="8.64" ry="7.17"/>
	
		<ellipse transform="matrix(0.6331 -0.774 0.774 0.6331 -9.7371 565.9857)" class="st0" cx="592.21" cy="293.26" rx="7.17" ry="8.64"/>
	<path class="st1" d="M614.22,228.68l-3.79-1.53c-0.72-0.29-1.54,0.06-1.83,0.78l-14.11,34.88c-0.29,0.72,0.06,1.54,0.78,1.83
		l3.79,1.53c0.72,0.29,1.54-0.06,1.83-0.78L615,230.51C615.29,229.79,614.94,228.97,614.22,228.68z"/>
	<path class="st1" d="M635.65,257.15l-2.69-3.08c-0.51-0.58-1.4-0.64-1.98-0.13l-20.39,17.79c-0.58,0.51-0.64,1.4-0.13,1.98
		l2.69,3.08c0.51,0.58,1.4,0.64,1.98,0.13l20.39-17.79C636.1,258.62,636.16,257.73,635.65,257.15z"/>
	<path class="st1" d="M649.95,285.75l-1.4-2.89c-0.34-0.7-1.18-0.99-1.88-0.65l-20.97,10.13c-0.7,0.34-0.99,1.18-0.65,1.88l1.4,2.89
		c0.34,0.7,1.18,0.99,1.88,0.65l20.97-10.13C649.99,287.29,650.29,286.45,649.95,285.75z"/>
	<path class="st1" d="M606.72,367.37l-3.82,1.45c-0.73,0.27-1.09,1.09-0.82,1.81l9.58,25.31c0.27,0.73,1.09,1.09,1.81,0.82
		l3.82-1.45c0.73-0.27,1.09-1.09,0.82-1.81l-9.58-25.31C608.26,367.46,607.45,367.1,606.72,367.37z"/>
	<path class="st1" d="M621.28,353.55l-2.59,3.16c-0.49,0.6-0.4,1.48,0.2,1.98l16.57,13.55c0.6,0.49,1.48,0.4,1.98-0.2l2.59-3.16
		c0.49-0.6,0.4-1.49-0.2-1.98l-16.57-13.55C622.66,352.86,621.77,352.95,621.28,353.55z"/>
	<path class="st1" d="M628.87,335.7l-0.92,3.98c-0.17,0.76,0.3,1.51,1.05,1.68l30.39,7.01c0.76,0.17,1.51-0.3,1.68-1.05l0.92-3.98
		c0.17-0.76-0.3-1.51-1.05-1.68l-30.39-7.01C629.8,334.48,629.04,334.95,628.87,335.7z"/>
	<path class="st1" d="M541.78,237.93l-3.99,0.86c-0.76,0.16-1.24,0.91-1.08,1.67l5.71,26.46c0.16,0.76,0.91,1.24,1.67,1.08
		l3.99-0.86c0.76-0.16,1.24-0.91,1.08-1.67L543.45,239C543.29,238.25,542.54,237.76,541.78,237.93z"/>
	<path class="st1" d="M489.27,292.29l-0.92,3.98c-0.17,0.76,0.3,1.51,1.05,1.68l26.37,6.08c0.76,0.17,1.51-0.3,1.68-1.05l0.92-3.98
		c0.17-0.76-0.3-1.51-1.05-1.68l-26.37-6.08C490.2,291.06,489.44,291.53,489.27,292.29z"/>
	<path class="st1" d="M514.41,261.39l-2.26,2.98c-0.53,0.69-0.39,1.68,0.3,2.21l16.93,12.86c0.69,0.53,1.68,0.39,2.21-0.3l2.26-2.98
		c0.53-0.69,0.39-1.68-0.3-2.21l-16.93-12.86C515.92,260.56,514.94,260.69,514.41,261.39z"/>
	<path class="st1" d="M580.4,377.85h-4.09c-0.78,0-1.4,0.63-1.4,1.4v27.06c0,0.78,0.63,1.4,1.4,1.4h4.09c0.78,0,1.4-0.63,1.4-1.4
		v-27.06C581.81,378.48,581.18,377.85,580.4,377.85z"/>
	<path class="st1" d="M555.71,374.74l-3.42-2.23c-0.65-0.42-1.52-0.24-1.94,0.41l-12.69,19.49c-0.42,0.65-0.24,1.52,0.41,1.94
		l3.42,2.23c0.65,0.42,1.52,0.24,1.94-0.41l12.69-19.49C556.54,376.04,556.36,375.17,555.71,374.74z"/>
	<path class="st1" d="M517.7,333.32l-1.78-3.68c-0.34-0.7-1.18-0.99-1.88-0.65l-24.37,11.77c-0.7,0.34-0.99,1.18-0.65,1.88
		l1.78,3.68c0.34,0.7,1.18,0.99,1.88,0.65l24.37-11.77C517.74,334.86,518.04,334.02,517.7,333.32z"/>
	<g>
		
			<ellipse transform="matrix(0.3244 -0.9459 0.9459 0.3244 201.1312 733.1282)" class="st1" cx="613.8" cy="225.76" rx="3.74" ry="9.82"/>
		
			<ellipse transform="matrix(0.3244 -0.9459 0.9459 0.3244 201.3448 733.0646)" class="st0" cx="613.86" cy="225.58" rx="2.06" ry="5.87"/>
	</g>
	<g>
		
			<ellipse transform="matrix(0.7185 -0.6955 0.6955 0.7185 2.3354 513.8615)" class="st1" cx="636" cy="254.05" rx="3.74" ry="9.82"/>
		
			<ellipse transform="matrix(0.7185 -0.6955 0.6955 0.7185 2.4669 513.9198)" class="st0" cx="636.14" cy="253.91" rx="2.06" ry="5.87"/>
	</g>
	
		<ellipse transform="matrix(0.921 -0.3895 0.3895 0.921 -59.057 275.8897)" class="st1" cx="650.77" cy="283.57" rx="3.74" ry="9.82"/>
	<g>
		
			<ellipse transform="matrix(0.146 -0.9893 0.9893 0.146 223.7232 952.11)" class="st1" cx="663.35" cy="346.47" rx="9.82" ry="3.74"/>
		
			<ellipse transform="matrix(0.146 -0.9893 0.9893 0.146 223.8574 952.3215)" class="st0" cx="663.54" cy="346.5" rx="5.87" ry="2.06"/>
	</g>
	
		<ellipse transform="matrix(0.5083 -0.8612 0.8612 0.5083 -6.3349 734.0535)" class="st1" cx="639.67" cy="372.57" rx="9.82" ry="3.74"/>
	<g>
		
			<ellipse transform="matrix(0.9423 -0.3349 0.3349 0.9423 -97.5585 229.4719)" class="st1" cx="616.63" cy="397.63" rx="9.82" ry="3.74"/>
		
			<ellipse transform="matrix(0.9423 -0.3349 0.3349 0.9423 -97.5017 229.44)" class="st0" cx="616.57" cy="397.45" rx="5.87" ry="2.06"/>
	</g>
	<g>
		
			<ellipse transform="matrix(1.514130e-03 -1 1 1.514130e-03 169.2303 985.999)" class="st1" cx="578.36" cy="408.26" rx="3.74" ry="9.82"/>
		
			<ellipse transform="matrix(1.514130e-03 -1 1 1.514130e-03 169.4223 985.8079)" class="st0" cx="578.36" cy="408.06" rx="2.06" ry="5.87"/>
	</g>
	<g>
		
			<ellipse transform="matrix(0.4908 -0.8712 0.8712 0.4908 -72.159 671.5198)" class="st1" cx="538.46" cy="397.5" rx="3.74" ry="9.82"/>
		
			<ellipse transform="matrix(0.4908 -0.8712 0.8712 0.4908 -71.9655 671.5167)" class="st0" cx="538.55" cy="397.33" rx="2.06" ry="5.87"/>
	</g>
	<g>
		
			<ellipse transform="matrix(0.9345 -0.3559 0.3559 0.9345 -90.9164 196.1183)" class="st1" cx="487.5" cy="345.13" rx="3.74" ry="9.82"/>
		
			<ellipse transform="matrix(0.9345 -0.3559 0.3559 0.9345 -90.8804 196.1776)" class="st0" cx="487.68" cy="345.06" rx="2.06" ry="5.87"/>
	</g>
	
		<ellipse transform="matrix(0.1929 -0.9812 0.9812 0.1929 105.3046 713.9803)" class="st1" cx="486.66" cy="292.98" rx="9.82" ry="3.74"/>
	<g>
		
			<ellipse transform="matrix(0.6167 -0.7872 0.7872 0.6167 -9.7845 502.6631)" class="st1" cx="511.31" cy="261.38" rx="9.82" ry="3.74"/>
		
			<ellipse transform="matrix(0.6167 -0.7872 0.7872 0.6167 -9.7493 502.499)" class="st0" cx="511.16" cy="261.26" rx="5.87" ry="2.06"/>
	</g>
	<g>
		
			<ellipse transform="matrix(0.984 -0.178 0.178 0.984 -33.4261 99.7933)" class="st1" cx="539.6" cy="236.24" rx="9.82" ry="3.74"/>
		
			<ellipse transform="matrix(0.984 -0.178 0.178 0.984 -33.3931 99.7842)" class="st0" cx="539.57" cy="236.05" rx="5.87" ry="2.06"/>
	</g>
</g>
</svg>
