<?xml version="1.0" encoding="utf-8"?>
<!-- Generator: Adobe Illustrator 24.1.2, SVG Export Plug-In . SVG Version: 6.00 Build 0)  -->
<svg version="1.1" id="Laag_1" xmlns="http://www.w3.org/2000/svg" xmlns:xlink="http://www.w3.org/1999/xlink" x="0px" y="0px"
	 viewBox="0 0 841.9 595.3" style="enable-background:new 0 0 841.9 595.3;" xml:space="preserve">
<style type="text/css">
	.st0{fill:#3B8974;}
	.st1{fill:#66BEA9;}
</style>
<g>
	<g>
		<path class="st0" d="M269.6,436.4l-8.1-8.1c-1.5-1.5-4.2-1.7-5.9-0.3l-47.8,36.5c-1.7,1.3-1.9,3.7-0.4,5.2l8.1,8.1
			c1.5,1.5,4.2,1.7,5.9,0.3l47.8-36.5C271,440.3,271.2,438,269.6,436.4z"/>
		<g>
			
				<ellipse transform="matrix(0.6444 -0.7646 0.7646 0.6444 -291.6445 329.5017)" class="st0" cx="208.5" cy="478.4" rx="10.5" ry="27.7"/>
			
				<ellipse transform="matrix(0.6473 -0.7622 0.7622 0.6473 -290.6855 327.8229)" class="st0" cx="208.9" cy="478" rx="5.8" ry="16.6"/>
		</g>
	</g>
	<g>
		<path class="st0" d="M649.6,325.5v-10.8c0-2.1-1.9-3.7-4.2-3.7h-81.2c-2.3,0-4.2,1.7-4.2,3.7v10.8c0,2.1,1.9,3.7,4.2,3.7h81.2
			C647.7,329.2,649.6,327.5,649.6,325.5z"/>
		<g>
			
				<ellipse transform="matrix(8.066289e-03 -1 1 8.066289e-03 332.3519 972.7982)" class="st0" cx="656.5" cy="318.9" rx="25.8" ry="11.2"/>
			
				<ellipse transform="matrix(7.992405e-03 -1 1 7.992405e-03 332.9592 973.4014)" class="st0" cx="657.1" cy="318.9" rx="15.4" ry="6.2"/>
		</g>
	</g>
	<g>
		<path class="st0" d="M395.4,117.8h-12.3c-2.3,0-4.2,1.7-4.2,3.7v48.4c0,2.1,1.9,3.7,4.2,3.7h12.3c2.3,0,4.2-1.7,4.2-3.7v-48.3
			C399.6,119.4,397.7,117.8,395.4,117.8z"/>
		<ellipse class="st0" cx="389.2" cy="118.3" rx="29.5" ry="9.8"/>
		<ellipse class="st0" cx="389.2" cy="116.8" rx="16.4" ry="5.5"/>
	</g>
	<ellipse class="st1" cx="389.2" cy="330.3" rx="183.3" ry="160.7"/>
	<ellipse class="st1" cx="362.2" cy="248.1" rx="20.7" ry="18.1"/>
	<ellipse class="st0" cx="387.4" cy="311" rx="33.5" ry="28.1"/>
	
		<ellipse transform="matrix(0.9918 -0.1274 0.1274 0.9918 -54.9151 58.0356)" class="st0" cx="426.2" cy="458.2" rx="27.7" ry="14.5"/>
	
		<ellipse transform="matrix(0.6625 -0.749 0.749 0.6625 -124.6985 520.5959)" class="st0" cx="515.4" cy="398.7" rx="26.2" ry="16.8"/>
	
		<ellipse transform="matrix(0.3838 -0.9234 0.9234 0.3838 -215.0423 555.9901)" class="st0" cx="309.1" cy="439.1" rx="16.2" ry="25.8"/>
	<ellipse class="st0" cx="397.3" cy="402.5" rx="28.8" ry="21.3"/>
	<ellipse class="st0" cx="461.7" cy="337.4" rx="30" ry="26.3"/>
	
		<ellipse transform="matrix(0.5372 -0.8435 0.8435 0.5372 -148.0207 432.4492)" class="st0" cx="320.1" cy="351.1" rx="23.2" ry="27.1"/>
	
		<ellipse transform="matrix(0.9878 -0.1555 0.1555 0.9878 -26.8292 57.9139)" class="st0" cx="356.8" cy="200.5" rx="26.4" ry="15.9"/>
	
		<ellipse transform="matrix(0.5161 -0.8565 0.8565 0.5161 -103.1865 344.3661)" class="st0" cx="253.2" cy="263.5" rx="23.8" ry="17.5"/>
	
		<ellipse transform="matrix(0.9698 -0.244 0.244 0.9698 -81.0418 70.3191)" class="st0" cx="243.3" cy="362.2" rx="17.9" ry="23.4"/>
	
		<ellipse transform="matrix(0.401 -0.9161 0.9161 0.401 80.3599 565.7535)" class="st0" cx="472.8" cy="221.4" rx="15.9" ry="27.7"/>
	<ellipse transform="matrix(0.9877 -0.1561 0.1561 0.9877 -40.2034 87.947)" class="st0" cx="539.7" cy="299.9" rx="17.6" ry="25"/>
	
		<ellipse transform="matrix(0.8892 -0.4575 0.4575 0.8892 -85.2391 180.548)" class="st0" cx="330.1" cy="266.3" rx="24.8" ry="19.7"/>
	<ellipse transform="matrix(0.3986 -0.9171 0.9171 0.3986 23.5325 562.9263)" class="st0" cx="441" cy="263.5" rx="19.5" ry="25"/>
	<path class="st1" d="M507.2,93.6l-11.4-4c-2.2-0.8-4.6,0.2-5.5,2.1L448,183.4c-0.9,1.9,0.2,4.1,2.3,4.8l11.4,4
		c2.2,0.8,4.6-0.2,5.5-2.1l42.3-91.8C510.4,96.5,509.3,94.3,507.2,93.6z"/>
	<path class="st1" d="M571.5,168.5l-8.1-8.1c-1.5-1.5-4.2-1.7-5.9-0.3l-61.2,46.8c-1.7,1.3-1.9,3.7-0.4,5.2l8.1,8.1
		c1.5,1.5,4.2,1.7,5.9,0.3l61.2-46.8C572.8,172.3,573,170,571.5,168.5z"/>
	<path class="st1" d="M614.4,243.7l-4.2-7.6c-1-1.8-3.5-2.6-5.6-1.7l-62.9,26.7c-2.1,0.9-3,3.1-2,4.9l4.2,7.6c1,1.8,3.5,2.6,5.6,1.7
		l62.9-26.7C614.5,247.8,615.4,245.6,614.4,243.7z"/>
	<path class="st1" d="M484.7,458.5l-11.5,3.8c-2.2,0.7-3.3,2.9-2.5,4.8l28.7,66.6c0.8,1.9,3.3,2.9,5.4,2.2l11.5-3.8
		c2.2-0.7,3.3-2.9,2.5-4.8l-28.7-66.6C489.3,458.7,486.8,457.8,484.7,458.5z"/>
	<path class="st1" d="M528.3,422.1l-7.8,8.3c-1.5,1.6-1.2,3.9,0.6,5.2l49.7,35.7c1.8,1.3,4.4,1.1,5.9-0.5l7.8-8.3
		c1.5-1.6,1.2-3.9-0.6-5.2l-49.7-35.7C532.5,420.3,529.8,420.5,528.3,422.1z"/>
	<path class="st1" d="M551.1,375.1l-2.8,10.5c-0.5,2,0.9,4,3.2,4.4l91.2,18.4c2.3,0.4,4.5-0.8,5-2.8l2.8-10.5c0.5-2-0.9-4-3.2-4.4
		l-91.2-18.4C553.9,371.9,551.6,373.2,551.1,375.1z"/>
	<path class="st1" d="M289.8,117.9l-12,2.3c-2.3,0.4-3.7,2.4-3.2,4.4l17.1,69.6c0.5,2,2.7,3.3,5,2.8l12-2.3c2.3-0.4,3.7-2.4,3.2-4.4
		l-17.1-69.6C294.3,118.7,292.1,117.4,289.8,117.9z"/>
	<path class="st1" d="M132.2,260.9l-2.8,10.5c-0.5,2,0.9,4,3.2,4.4l79.1,16c2.3,0.4,4.5-0.8,5-2.8l2.8-10.5c0.5-2-0.9-4-3.2-4.4
		l-79.1-16C135,257.7,132.8,258.9,132.2,260.9z"/>
	<path class="st1" d="M207.7,179.6l-6.8,7.8c-1.6,1.8-1.2,4.4,0.9,5.8l50.8,33.8c2.1,1.4,5,1,6.6-0.8l6.8-7.8
		c1.6-1.8,1.2-4.4-0.9-5.8l-50.8-33.8C212.2,177.4,209.3,177.8,207.7,179.6z"/>
	<path class="st1" d="M405.7,486h-12.3c-2.3,0-4.2,1.7-4.2,3.7v71.2c0,2.1,1.9,3.7,4.2,3.7h12.3c2.3,0,4.2-1.7,4.2-3.7v-71.2
		C409.9,487.7,408,486,405.7,486z"/>
	<path class="st1" d="M331.6,477.9l-10.3-5.9c-2-1.1-4.6-0.6-5.8,1.1l-38.1,51.3c-1.3,1.7-0.7,4,1.2,5.1l10.3,5.9
		c2,1.1,4.6,0.6,5.8-1.1l38.1-51.3C334.1,481.3,333.5,479,331.6,477.9z"/>
	<path class="st1" d="M217.5,368.9l-5.3-9.7c-1-1.8-3.5-2.6-5.6-1.7l-73.1,31c-2.1,0.9-3,3.1-2,4.9l5.3,9.7c1,1.8,3.5,2.6,5.6,1.7
		l73.1-31C217.7,372.9,218.6,370.7,217.5,368.9z"/>
	<g>
		
			<ellipse transform="matrix(0.2777 -0.9607 0.9607 0.2777 282.8701 548.022)" class="st1" cx="505.9" cy="85.9" rx="10" ry="29.1"/>
		
			<ellipse transform="matrix(0.2794 -0.9602 0.9602 0.2794 282.6284 547.4631)" class="st0" cx="506.1" cy="85.4" rx="5.5" ry="17.4"/>
	</g>
	<g>
		
			<ellipse transform="matrix(0.6549 -0.7557 0.7557 0.6549 76.4087 487.9717)" class="st1" cx="572.5" cy="160.3" rx="10.5" ry="27.7"/>
		
			<ellipse transform="matrix(0.6577 -0.7532 0.7532 0.6577 75.5905 486.2753)" class="st0" cx="572.9" cy="160" rx="5.8" ry="16.5"/>
	</g>
	<ellipse transform="matrix(0.892 -0.452 0.452 0.892 -40.9784 304.4949)" class="st1" cx="616.8" cy="238" rx="11" ry="26.4"/>
	<g>
		
			<ellipse transform="matrix(0.1745 -0.9847 0.9847 0.1745 143.0757 977.4751)" class="st1" cx="654.5" cy="403.4" rx="25.9" ry="11.2"/>
		
			<ellipse transform="matrix(0.173 -0.9849 0.9849 0.173 144.375 978.8992)" class="st0" cx="655.1" cy="403.5" rx="15.5" ry="6.2"/>
	</g>
	
		<ellipse transform="matrix(0.5767 -0.8169 0.8169 0.5767 -138.6831 676.515)" class="st1" cx="583.5" cy="472.1" rx="26.9" ry="10.8"/>
	<g>
		<ellipse transform="matrix(0.9579 -0.287 0.287 0.9579 -132.7889 170.27)" class="st1" cx="514.5" cy="538.1" rx="29.1" ry="10"/>
		
			<ellipse transform="matrix(0.9574 -0.2887 0.2887 0.9574 -133.3392 171.3976)" class="st0" cx="514.3" cy="537.7" rx="17.4" ry="5.5"/>
	</g>
	<g>
		
			<ellipse transform="matrix(1.277680e-03 -1 1 1.277680e-03 -166.9816 964.9032)" class="st1" cx="399.6" cy="566" rx="9.8" ry="29.5"/>
		
			<ellipse transform="matrix(1.286029e-03 -1 1 1.286029e-03 -166.5053 964.3715)" class="st0" cx="399.6" cy="565.5" rx="5.4" ry="17.6"/>
	</g>
	<g>
		
			<ellipse transform="matrix(0.4285 -0.9036 0.9036 0.4285 -326.0307 560.0988)" class="st1" cx="279.7" cy="537.8" rx="10.1" ry="28.7"/>
		
			<ellipse transform="matrix(0.4309 -0.9024 0.9024 0.4309 -325.5446 558.4536)" class="st0" cx="280" cy="537.3" rx="5.6" ry="17.1"/>
	</g>
	<g>
		
			<ellipse transform="matrix(0.9097 -0.4153 0.4153 0.9097 -154.6535 88.8221)" class="st1" cx="126.9" cy="400" rx="11" ry="26.3"/>
		
			<ellipse transform="matrix(0.911 -0.4123 0.4123 0.911 -153.5065 88.1049)" class="st0" cx="127.4" cy="399.8" rx="6.1" ry="15.7"/>
	</g>
	
		<ellipse transform="matrix(0.2297 -0.9733 0.9733 0.2297 -159.9056 323.4499)" class="st1" cx="124.4" cy="262.7" rx="26" ry="11.2"/>
	<g>
		
			<ellipse transform="matrix(0.6831 -0.7303 0.7303 0.6831 -68.2515 201.7514)" class="st1" cx="198.3" cy="179.5" rx="27.3" ry="10.6"/>
		
			<ellipse transform="matrix(0.6802 -0.733 0.733 0.6802 -68.0759 202.3673)" class="st0" cx="197.9" cy="179.2" rx="16.3" ry="5.8"/>
	</g>
	<g>
		
			<ellipse transform="matrix(0.9886 -0.1509 0.1509 0.9886 -13.8577 44.0232)" class="st1" cx="283.2" cy="113.3" rx="29.4" ry="9.9"/>
		
			<ellipse transform="matrix(0.9884 -0.1518 0.1518 0.9884 -13.8505 44.2957)" class="st0" cx="283.1" cy="112.8" rx="17.5" ry="5.4"/>
	</g>
</g>
</svg>
