<?xml version="1.0" encoding="utf-8"?>
<!-- Generator: Adobe Illustrator 24.1.2, SVG Export Plug-In . SVG Version: 6.00 Build 0)  -->
<svg version="1.1" id="Laag_1" xmlns="http://www.w3.org/2000/svg" xmlns:xlink="http://www.w3.org/1999/xlink" x="0px" y="0px"
	 viewBox="0 0 841.9 595.3" style="enable-background:new 0 0 841.9 595.3;" xml:space="preserve">
<style type="text/css">
	.st0{fill:#38348B;}
	.st1{fill:#062833;}
	.st2{fill:#22697F;}
</style>
<g>
	<ellipse transform="matrix(0.93 -0.3677 0.3677 0.93 -131.8385 80.4342)" class="st0" cx="145.2" cy="386.3" rx="11.8" ry="30.3"/>
	
		<ellipse transform="matrix(0.9302 -0.3672 0.3672 0.9302 -131.5483 80.4912)" class="st1" cx="145.8" cy="386" rx="6.5" ry="18.1"/>
	<ellipse transform="matrix(0.2 -0.9798 0.9798 0.2 -107.3078 320.4438)" class="st0" cx="142.6" cy="225.9" rx="30.2" ry="11.8"/>
	<g>
		<g>
			<path class="st2" d="M295.5,428.9l-8.5-9.5c-1.6-1.8-4.4-2-6.3-0.4l-50.3,42.7c-1.8,1.6-2,4.3-0.4,6.1l8.5,9.5
				c1.6,1.8,4.4,2,6.3,0.4l50.3-42.7C296.9,433.4,297.1,430.7,295.5,428.9z"/>
			<g>
				
					<ellipse transform="matrix(0.6955 -0.7185 0.7185 0.6955 -273.0161 311.5218)" class="st2" cx="231" cy="477.9" rx="11.7" ry="30.6"/>
				
					<ellipse transform="matrix(0.6961 -0.718 0.718 0.6961 -272.4251 311.3865)" class="st2" cx="231.6" cy="477.5" rx="6.4" ry="18.3"/>
			</g>
		</g>
		<g>
			<path class="st2" d="M695.7,299.3v-12.5c0-2.4-2-4.3-4.4-4.3h-85.6c-2.4,0-4.4,1.9-4.4,4.3v12.5c0,2.4,2,4.3,4.4,4.3h85.6
				C693.7,303.6,695.7,301.6,695.7,299.3z"/>
			<g>
				
					<ellipse transform="matrix(6.969405e-03 -1 1 6.969405e-03 406.4606 992.4563)" class="st2" cx="702.9" cy="291.6" rx="30.2" ry="11.8"/>
				
					<ellipse transform="matrix(6.957456e-03 -1 1 6.957456e-03 407.083 993.0453)" class="st2" cx="703.5" cy="291.6" rx="18" ry="6.5"/>
			</g>
		</g>
		<g>
			<path class="st2" d="M427.9,56.6h-13c-2.4,0-4.4,1.9-4.4,4.3v56.5c0,2.4,2,4.3,4.4,4.3h13c2.4,0,4.4-1.9,4.4-4.3V61
				C432.4,58.6,430.4,56.6,427.9,56.6z"/>
			<ellipse class="st2" cx="421.5" cy="57.3" rx="31" ry="11.5"/>
			<ellipse class="st2" cx="421.5" cy="55.5" rx="17.3" ry="6.4"/>
		</g>
		<ellipse class="st0" cx="421.5" cy="304.8" rx="193" ry="187.7"/>
		<ellipse class="st1" cx="419.5" cy="282.4" rx="35.2" ry="32.9"/>
		
			<ellipse transform="matrix(0.9881 -0.154 0.154 0.9881 -64.4668 76.2973)" class="st1" cx="460.3" cy="454.3" rx="29.2" ry="16.8"/>
		
			<ellipse transform="matrix(0.5697 -0.8218 0.8218 0.5697 -77.5438 621.103)" class="st1" cx="554.4" cy="384.6" rx="29.4" ry="18.4"/>
		
			<ellipse transform="matrix(0.4725 -0.8813 0.8813 0.4725 -202.8956 524.9045)" class="st1" cx="337" cy="431.9" rx="18.6" ry="27.7"/>
		<ellipse class="st1" cx="430" cy="389.2" rx="30.3" ry="24.9"/>
		<ellipse class="st1" cx="497.8" cy="313.2" rx="31.6" ry="30.8"/>
		
			<ellipse transform="matrix(0.7977 -0.603 0.603 0.7977 -127.9488 276.8903)" class="st1" cx="348.7" cy="329.2" rx="25.9" ry="29.9"/>
		
			<ellipse transform="matrix(0.9805 -0.1965 0.1965 0.9805 -22.5483 79.102)" class="st1" cx="387.3" cy="153.2" rx="27.9" ry="18.5"/>
		
			<ellipse transform="matrix(0.4003 -0.9164 0.9164 0.4003 -40.965 391.0476)" class="st1" cx="278.3" cy="226.8" rx="27.2" ry="18.9"/>
		
			<ellipse transform="matrix(0.9845 -0.1755 0.1755 0.9845 -55.8877 52.2889)" class="st1" cx="267.8" cy="342.2" rx="18.9" ry="27.2"/>
		
			<ellipse transform="matrix(0.4772 -0.8788 0.8788 0.4772 110.1585 540.6768)" class="st1" cx="509.5" cy="177.8" rx="18.2" ry="29.7"/>
		
			<ellipse transform="matrix(0.9928 -0.1194 0.1194 0.9928 -28.023 71.1781)" class="st1" cx="579.9" cy="269.4" rx="18.5" ry="29.2"/>
		
			<ellipse transform="matrix(0.7575 -0.6528 0.6528 0.7575 -63.0404 290.2762)" class="st1" cx="359.2" cy="230" rx="27" ry="22.3"/>
		
			<ellipse transform="matrix(0.5769 -0.8168 0.8168 0.5769 16.1163 484.8654)" class="st1" cx="476.1" cy="226.9" rx="22.2" ry="27"/>
		<path class="st0" d="M545.6,28.3l-12-4.7c-2.3-0.9-4.9,0.2-5.8,2.4l-44.6,107.2c-0.9,2.2,0.2,4.7,2.4,5.6l12,4.7
			c2.3,0.9,4.9-0.2,5.8-2.4l44.6-107.2C549,31.8,547.9,29.2,545.6,28.3z"/>
		<path class="st0" d="M613.4,115.8l-8.5-9.5c-1.6-1.8-4.4-2-6.3-0.4l-64.4,54.7c-1.8,1.6-2,4.3-0.4,6.1l8.5,9.5
			c1.6,1.8,4.4,2,6.3,0.4l64.4-54.7C614.8,120.4,615,117.6,613.4,115.8z"/>
		<path class="st0" d="M658.5,203.7l-4.4-8.9c-1.1-2.2-3.7-3.1-5.9-2L581.9,224c-2.2,1-3.1,3.6-2.1,5.8l4.4,8.9
			c1.1,2.2,3.7,3.1,5.9,2l66.3-31.2C658.7,208.5,659.6,205.9,658.5,203.7z"/>
		<path class="st0" d="M521.9,454.6l-12.1,4.4c-2.3,0.8-3.4,3.3-2.6,5.6l30.3,77.8c0.9,2.2,3.4,3.4,5.7,2.5l12.1-4.4
			c2.3-0.8,3.4-3.3,2.6-5.6l-30.3-77.8C526.8,454.9,524.3,453.8,521.9,454.6z"/>
		<path class="st0" d="M568,412.1l-8.2,9.7c-1.6,1.9-1.3,4.6,0.6,6.1l52.4,41.6c1.9,1.5,4.7,1.2,6.2-0.6l8.2-9.7
			c1.6-1.9,1.3-4.6-0.6-6.1l-52.4-41.6C572.3,410,569.5,410.3,568,412.1z"/>
		<path class="st0" d="M591.9,357.3l-2.9,12.2c-0.6,2.3,0.9,4.6,3.3,5.2l96,21.6c2.4,0.5,4.8-0.9,5.3-3.2l2.9-12.2
			c0.6-2.3-0.9-4.6-3.3-5.2l-96-21.6C594.9,353.5,592.5,354.9,591.9,357.3z"/>
		<path class="st0" d="M316.8,56.8l-12.6,2.7c-2.4,0.5-3.9,2.8-3.4,5.1l18,81.3c0.5,2.3,2.9,3.8,5.3,3.3l12.6-2.7
			c2.4-0.5,3.9-2.8,3.4-5.1l-18-81.3C321.5,57.8,319.2,56.3,316.8,56.8z"/>
		<path class="st0" d="M150.8,223.8l-2.9,12.2c-0.6,2.3,0.9,4.6,3.3,5.2l83.3,18.7c2.4,0.5,4.8-0.9,5.3-3.2l2.9-12.2
			c0.6-2.3-0.9-4.6-3.3-5.2l-83.3-18.7C153.8,220.1,151.4,221.5,150.8,223.8z"/>
		<path class="st0" d="M230.3,128.9l-7.1,9.2c-1.7,2.1-1.2,5.2,0.9,6.8l53.5,39.5c2.2,1.6,5.3,1.2,7-0.9l7.1-9.2
			c1.7-2.1,1.2-5.2-0.9-6.8l-53.5-39.5C235,126.3,231.9,126.7,230.3,128.9z"/>
		<path class="st0" d="M438.8,486.8h-13c-2.4,0-4.4,1.9-4.4,4.3v83.1c0,2.4,2,4.3,4.4,4.3h13c2.4,0,4.4-1.9,4.4-4.3v-83.1
			C443.2,488.7,441.2,486.8,438.8,486.8z"/>
		<path class="st0" d="M360.7,477.2l-10.8-6.8c-2.1-1.3-4.8-0.7-6.1,1.3l-40.1,59.9c-1.3,2-0.8,4.7,1.3,6l10.8,6.8
			c2.1,1.3,4.8,0.7,6.1-1.3l40.1-59.9C363.4,481.2,362.8,478.6,360.7,477.2z"/>
		<path class="st0" d="M240.7,349.9l-5.6-11.3c-1.1-2.2-3.7-3.1-5.9-2l-77,36.2c-2.2,1-3.1,3.6-2.1,5.8l5.6,11.3
			c1.1,2.2,3.7,3.1,5.9,2l77-36.2C240.8,354.7,241.7,352.1,240.7,349.9z"/>
		
			<ellipse transform="matrix(0.3138 -0.9495 0.9495 0.3138 355.0673 530.095)" class="st0" cx="544.3" cy="19.4" rx="11.6" ry="30.9"/>
		
			<ellipse transform="matrix(0.3142 -0.9493 0.9493 0.3142 355.5985 529.8083)" class="st1" cx="544.5" cy="18.8" rx="6.4" ry="18.5"/>
		
			<ellipse transform="matrix(0.7054 -0.7088 0.7088 0.7054 105.6846 466.8336)" class="st0" cx="614.5" cy="106.3" rx="11.7" ry="30.6"/>
		
			<ellipse transform="matrix(0.7061 -0.7082 0.7082 0.7061 105.7506 466.5964)" class="st1" cx="614.9" cy="105.9" rx="6.4" ry="18.3"/>
		
			<ellipse transform="matrix(0.9156 -0.402 0.402 0.9156 -23.4194 282.4473)" class="st0" cx="661.2" cy="197" rx="11.8" ry="30.3"/>
		
			<ellipse transform="matrix(0.1515 -0.9885 0.9885 0.1515 208.8411 1023.9456)" class="st0" cx="700.8" cy="390.3" rx="30.2" ry="11.8"/>
		
			<ellipse transform="matrix(0.1512 -0.9885 0.9885 0.1512 209.3839 1024.7573)" class="st1" cx="701.4" cy="390.5" rx="18.1" ry="6.5"/>
		
			<ellipse transform="matrix(0.5225 -0.8527 0.8527 0.5225 -102.3248 758.5198)" class="st0" cx="626" cy="470.6" rx="30.4" ry="11.8"/>
		
			<ellipse transform="matrix(0.946 -0.324 0.324 0.946 -147.6017 208.8385)" class="st0" cx="553.3" cy="547.6" rx="30.9" ry="11.6"/>
		
			<ellipse transform="matrix(0.9459 -0.3245 0.3245 0.9459 -147.5903 209.0702)" class="st1" cx="553.1" cy="547" rx="18.5" ry="6.4"/>
		
			<ellipse transform="matrix(1.459320e-03 -1 1 1.459320e-03 -148.5394 1011.7204)" class="st0" cx="432.3" cy="580.2" rx="11.5" ry="31"/>
		
			<ellipse transform="matrix(1.461660e-03 -1 1 1.461660e-03 -147.9485 1011.1357)" class="st1" cx="432.3" cy="579.7" rx="6.3" ry="18.5"/>
		
			<ellipse transform="matrix(0.4771 -0.8788 0.8788 0.4771 -320.7739 555.2598)" class="st0" cx="306.3" cy="547.2" rx="11.6" ry="30.8"/>
		
			<ellipse transform="matrix(0.4777 -0.8785 0.8785 0.4777 -320.1731 554.7424)" class="st1" cx="306.5" cy="546.6" rx="6.4" ry="18.4"/>
		
			<ellipse transform="matrix(0.6309 -0.7759 0.7759 0.6309 -18.5632 218.6152)" class="st0" cx="220.5" cy="128.8" rx="30.5" ry="11.7"/>
		
			<ellipse transform="matrix(0.6303 -0.7764 0.7764 0.6303 -18.397 218.3013)" class="st1" cx="220" cy="128.5" rx="18.2" ry="6.4"/>
		<ellipse transform="matrix(0.9852 -0.1717 0.1717 0.9852 -4.2466 53.96)" class="st0" cx="309.8" cy="51.5" rx="31" ry="11.5"/>
		<ellipse transform="matrix(0.9851 -0.1719 0.1719 0.9851 -4.1587 54.0084)" class="st1" cx="309.7" cy="51" rx="18.5" ry="6.3"/>
	</g>
</g>
</svg>
