<?xml version="1.0" encoding="utf-8"?>
<!-- Generator: Adobe Illustrator 24.1.2, SVG Export Plug-In . SVG Version: 6.00 Build 0)  -->
<svg version="1.1" id="Laag_1" xmlns="http://www.w3.org/2000/svg" xmlns:xlink="http://www.w3.org/1999/xlink" x="0px" y="0px"
	 viewBox="0 0 595.28 841.89" style="enable-background:new 0 0 595.28 841.89;" xml:space="preserve">
<style type="text/css">
	.st0{fill:#E84B1E;}
	.st1{fill:#A53912;}
	.st2{fill:#7D3921;}
</style>
<ellipse transform="matrix(0.9325 -0.3611 0.3611 0.9325 -114.5825 95.4855)" class="st0" cx="198.19" cy="354.32" rx="3.77" ry="9.8"/>
<ellipse transform="matrix(0.9326 -0.3609 0.3609 0.9326 -114.4808 95.4676)" class="st1" cx="198.37" cy="354.25" rx="2.08" ry="5.86"/>
<ellipse transform="matrix(0.196 -0.9806 0.9806 0.196 -137.837 436.5987)" class="st0" cx="197.34" cy="302.36" rx="9.79" ry="3.78"/>
<g>
	<g>
		<path class="st2" d="M246.17,368.14l-2.71-3.07c-0.51-0.58-1.41-0.64-2-0.13l-16.06,13.84c-0.59,0.51-0.65,1.39-0.14,1.97
			l2.71,3.07c0.51,0.58,1.41,0.64,2,0.13l16.06-13.84C246.62,369.61,246.68,368.72,246.17,368.14z"/>
		<g>
			
				<ellipse transform="matrix(0.7028 -0.7113 0.7113 0.7028 -206.1371 274.6076)" class="st2" cx="225.61" cy="384.03" rx="3.75" ry="9.84"/>
			
				<ellipse transform="matrix(0.7031 -0.7111 0.7111 0.7031 -205.9602 274.506)" class="st2" cx="225.75" cy="383.9" rx="2.07" ry="5.89"/>
		</g>
	</g>
	<g>
		<path class="st2" d="M373.92,326.12v-4.06c0-0.78-0.63-1.4-1.4-1.4h-27.33c-0.78,0-1.4,0.63-1.4,1.4v4.06c0,0.78,0.63,1.4,1.4,1.4
			h27.33C373.29,327.52,373.92,326.89,373.92,326.12z"/>
		<g>
			
				<ellipse transform="matrix(6.826069e-03 -1 1 6.826069e-03 50.0239 697.6415)" class="st2" cx="376.22" cy="323.64" rx="9.78" ry="3.78"/>
			
				<ellipse transform="matrix(6.820957e-03 -1 1 6.820957e-03 50.2166 697.8378)" class="st2" cx="376.42" cy="323.64" rx="5.85" ry="2.08"/>
		</g>
	</g>
	<g>
		<path class="st2" d="M288.44,247.47h-4.15c-0.78,0-1.4,0.63-1.4,1.4v18.31c0,0.78,0.63,1.4,1.4,1.4h4.15c0.78,0,1.4-0.63,1.4-1.4
			v-18.31C289.85,248.1,289.22,247.47,288.44,247.47z"/>
		<ellipse class="st2" cx="286.37" cy="247.67" rx="9.9" ry="3.73"/>
		<ellipse class="st2" cx="286.37" cy="247.09" rx="5.52" ry="2.08"/>
	</g>
	<ellipse class="st0" cx="286.37" cy="327.92" rx="61.62" ry="60.86"/>
	<ellipse class="st1" cx="285.76" cy="320.65" rx="11.24" ry="10.65"/>
	
		<ellipse transform="matrix(0.9873 -0.1587 0.1587 0.9873 -55.9456 52.1831)" class="st1" cx="298.77" cy="376.39" rx="9.34" ry="5.46"/>
	
		<ellipse transform="matrix(0.5563 -0.831 0.831 0.5563 -148.1313 430.1913)" class="st1" cx="328.8" cy="353.82" rx="9.48" ry="5.9"/>
	
		<ellipse transform="matrix(0.4875 -0.8731 0.8731 0.4875 -189.3474 415.6877)" class="st1" cx="259.43" cy="369.14" rx="6" ry="8.88"/>
	<ellipse class="st1" cx="289.09" cy="355.27" rx="9.68" ry="8.08"/>
	<ellipse class="st1" cx="310.73" cy="330.63" rx="10.1" ry="9.97"/>
	
		<ellipse transform="matrix(0.8267 -0.5627 0.5627 0.8267 -143.3472 206.2601)" class="st1" cx="263.14" cy="335.82" rx="8.3" ry="9.64"/>
	
		<ellipse transform="matrix(0.9789 -0.2042 0.2042 0.9789 -51.1247 62.1349)" class="st1" cx="275.48" cy="278.76" rx="8.9" ry="5.98"/>
	
		<ellipse transform="matrix(0.386 -0.9225 0.9225 0.386 -131.4168 407.8378)" class="st1" cx="240.67" cy="302.64" rx="8.81" ry="6.04"/>
	
		<ellipse transform="matrix(0.9858 -0.1682 0.1682 0.9858 -53.8094 44.7532)" class="st1" cx="237.29" cy="340.03" rx="6.05" ry="8.8"/>
	
		<ellipse transform="matrix(0.4897 -0.8719 0.8719 0.4897 -89.4994 420.5084)" class="st1" cx="314.46" cy="286.71" rx="5.87" ry="9.53"/>
	
		<ellipse transform="matrix(0.9933 -0.1153 0.1153 0.9933 -34.2464 40.972)" class="st1" cx="336.96" cy="316.44" rx="5.92" ry="9.45"/>
	
		<ellipse transform="matrix(0.7303 -0.6831 0.6831 0.7303 -135.5813 263.9356)" class="st1" cx="266.51" cy="303.69" rx="8.67" ry="7.18"/>
	
		<ellipse transform="matrix(0.6078 -0.7941 0.7941 0.6078 -121.1662 359.9745)" class="st1" cx="303.82" cy="302.64" rx="7.17" ry="8.68"/>
	<path class="st0" d="M326.02,238.29l-3.82-1.53c-0.73-0.29-1.55,0.06-1.84,0.77l-14.23,34.75c-0.29,0.72,0.06,1.53,0.78,1.82
		l3.82,1.53c0.73,0.29,1.55-0.06,1.84-0.77l14.23-34.75C327.09,239.4,326.74,238.58,326.02,238.29z"/>
	<path class="st0" d="M347.64,266.66l-2.71-3.07c-0.51-0.58-1.41-0.64-2-0.13l-20.57,17.73c-0.59,0.51-0.65,1.39-0.14,1.97
		l2.71,3.07c0.51,0.58,1.41,0.64,2,0.13l20.57-17.73C348.09,268.13,348.16,267.24,347.64,266.66z"/>
	<path class="st0" d="M362.06,295.15l-1.41-2.88c-0.34-0.7-1.19-0.99-1.89-0.65l-21.16,10.1c-0.7,0.34-1,1.17-0.66,1.87l1.41,2.88
		c0.34,0.7,1.19,0.99,1.89,0.65l21.16-10.1C362.11,296.69,362.4,295.85,362.06,295.15z"/>
	<path class="st0" d="M318.45,376.48l-3.85,1.44c-0.73,0.27-1.1,1.08-0.82,1.8l9.67,25.22c0.28,0.72,1.09,1.09,1.83,0.81l3.85-1.44
		c0.73-0.27,1.1-1.08,0.82-1.8l-9.67-25.22C320,376.57,319.19,376.21,318.45,376.48z"/>
	<path class="st0" d="M333.14,362.71l-2.61,3.15c-0.5,0.6-0.41,1.48,0.2,1.97l16.72,13.5c0.61,0.49,1.5,0.4,1.99-0.2l2.61-3.15
		c0.5-0.6,0.41-1.48-0.2-1.97l-16.72-13.5C334.53,362.02,333.64,362.11,333.14,362.71z"/>
	<path class="st0" d="M340.8,344.93l-0.93,3.97c-0.18,0.75,0.3,1.5,1.06,1.68l30.66,6.99c0.76,0.17,1.52-0.3,1.7-1.05l0.93-3.97
		c0.18-0.75-0.3-1.5-1.06-1.68l-30.66-6.99C341.73,343.7,340.97,344.17,340.8,344.93z"/>
	<path class="st0" d="M252.95,247.51l-4.03,0.86c-0.76,0.16-1.25,0.91-1.09,1.66l5.76,26.36c0.16,0.76,0.92,1.24,1.68,1.07
		l4.03-0.86c0.76-0.16,1.25-0.91,1.09-1.66l-5.76-26.36C254.47,247.83,253.71,247.35,252.95,247.51z"/>
	<path class="st0" d="M199.97,301.67l-0.93,3.97c-0.18,0.75,0.3,1.5,1.06,1.68l26.6,6.06c0.76,0.17,1.52-0.3,1.7-1.05l0.93-3.97
		c0.18-0.75-0.3-1.5-1.06-1.68l-26.6-6.06C200.91,300.45,200.15,300.92,199.97,301.67z"/>
	<path class="st0" d="M225.33,270.88l-2.28,2.97c-0.53,0.69-0.39,1.68,0.3,2.2l17.08,12.81c0.7,0.52,1.7,0.39,2.23-0.3l2.28-2.97
		c0.53-0.69,0.39-1.68-0.3-2.2l-17.08-12.81C226.86,270.06,225.86,270.19,225.33,270.88z"/>
	<path class="st0" d="M291.92,386.92h-4.15c-0.78,0-1.4,0.63-1.4,1.4v26.95c0,0.78,0.63,1.4,1.4,1.4h4.15c0.78,0,1.4-0.63,1.4-1.4
		v-26.95C293.32,387.55,292.69,386.92,291.92,386.92z"/>
	<path class="st0" d="M266.99,383.82l-3.45-2.22c-0.66-0.42-1.53-0.24-1.96,0.41l-12.8,19.42c-0.43,0.65-0.24,1.51,0.41,1.94
		l3.45,2.22c0.66,0.42,1.53,0.24,1.96-0.41l12.8-19.42C267.84,385.11,267.65,384.25,266.99,383.82z"/>
	<path class="st0" d="M228.65,342.55l-1.79-3.66c-0.34-0.7-1.19-0.99-1.89-0.65l-24.58,11.73c-0.7,0.34-1,1.17-0.66,1.87l1.79,3.66
		c0.34,0.7,1.19,0.99,1.89,0.65l24.58-11.73C228.7,344.08,228.99,343.25,228.65,342.55z"/>
	
		<ellipse transform="matrix(0.3196 -0.9475 0.9475 0.3196 -1.5098 468.6689)" class="st0" cx="325.6" cy="235.39" rx="3.74" ry="9.89"/>
	
		<ellipse transform="matrix(0.3198 -0.9475 0.9475 0.3198 -1.3474 468.5334)" class="st1" cx="325.66" cy="235.21" rx="2.06" ry="5.91"/>
	
		<ellipse transform="matrix(0.7127 -0.7015 0.7015 0.7127 -84.9073 319.8252)" class="st0" cx="347.99" cy="263.57" rx="3.75" ry="9.84"/>
	
		<ellipse transform="matrix(0.713 -0.7012 0.7012 0.713 -84.795 319.7249)" class="st1" cx="348.13" cy="263.43" rx="2.07" ry="5.89"/>
	
		<ellipse transform="matrix(0.9187 -0.3951 0.3951 0.9187 -86.2271 167.1944)" class="st0" cx="362.89" cy="292.98" rx="3.77" ry="9.8"/>
	
		<ellipse transform="matrix(0.1484 -0.9889 0.9889 0.1484 -31.8824 674.2788)" class="st0" cx="375.58" cy="355.65" rx="9.79" ry="3.78"/>
	
		<ellipse transform="matrix(0.1483 -0.9889 0.9889 0.1483 -31.712 674.5366)" class="st1" cx="375.77" cy="355.68" rx="5.85" ry="2.08"/>
	
		<ellipse transform="matrix(0.5146 -0.8574 0.8574 0.5146 -156.5386 486.8072)" class="st0" cx="351.69" cy="381.66" rx="9.81" ry="3.77"/>
	
		<ellipse transform="matrix(0.944 -0.33 0.33 0.944 -115.7872 131.1671)" class="st0" cx="328.45" cy="406.63" rx="9.89" ry="3.74"/>
	
		<ellipse transform="matrix(0.9439 -0.3302 0.3302 0.9439 -115.7938 131.2363)" class="st1" cx="328.39" cy="406.45" rx="5.91" ry="2.06"/>
	
		<ellipse transform="matrix(1.489257e-03 -1 1 1.489257e-03 -127.799 706.4382)" class="st0" cx="289.85" cy="417.21" rx="3.73" ry="9.9"/>
	
		<ellipse transform="matrix(1.490337e-03 -1 1 1.490337e-03 -127.6081 706.2474)" class="st1" cx="289.85" cy="417.02" rx="2.05" ry="5.92"/>
	
		<ellipse transform="matrix(0.4847 -0.8747 0.8747 0.4847 -226.9378 427.7939)" class="st0" cx="249.59" cy="406.49" rx="3.74" ry="9.88"/>
	
		<ellipse transform="matrix(0.4849 -0.8745 0.8745 0.4849 -226.7499 427.6435)" class="st1" cx="249.69" cy="406.33" rx="2.06" ry="5.91"/>
	
		<ellipse transform="matrix(0.6231 -0.7822 0.7822 0.6231 -128.1143 275.8932)" class="st0" cx="222.2" cy="270.87" rx="9.83" ry="3.76"/>
	
		<ellipse transform="matrix(0.6228 -0.7824 0.7824 0.6228 -128.0777 275.856)" class="st1" cx="222.05" cy="270.76" rx="5.88" ry="2.07"/>
	
		<ellipse transform="matrix(0.9845 -0.1751 0.1751 0.9845 -39.1734 47.7086)" class="st0" cx="250.75" cy="245.82" rx="9.9" ry="3.73"/>
	
		<ellipse transform="matrix(0.9845 -0.1752 0.1752 0.9845 -39.1658 47.7359)" class="st1" cx="250.71" cy="245.64" rx="5.92" ry="2.05"/>
</g>
</svg>
